<svg width="14" height="19" viewBox="0 0 14 19" fill="none" xmlns="http://www.w3.org/2000/svg">
<path d="M6.31522 7.28786H1.68194C1.66429 7.14665 1.65547 6.93485 1.65547 6.65244C1.65547 4.90503 2.19381 3.45768 3.2705 2.3104C4.36483 1.14546 5.78571 0.562988 7.53311 0.562988C9.20992 0.562988 10.569 1.11016 11.6104 2.20449C12.6694 3.28118 13.1989 4.65792 13.1989 6.33473C13.1989 9.01762 11.6545 11.7799 8.56567 14.6217C9.20109 14.5687 10.6661 14.5246 12.9607 14.4893V18.5401H0.834717L5.65333 12.1065C6.23579 11.3298 6.68588 10.7032 7.0036 10.2267C7.32131 9.75012 7.65667 9.10587 8.00968 8.29394C8.36269 7.48202 8.5392 6.74069 8.5392 6.06997C8.5392 5.66401 8.44212 5.30217 8.24796 4.98446C8.07146 4.6491 7.79787 4.48142 7.42721 4.48142C6.66823 4.48142 6.28875 5.20509 6.28875 6.65244C6.28875 6.93485 6.29757 7.14665 6.31522 7.28786Z" fill="#FFCF00"/>
</svg>
