<svg width="12" height="19" viewBox="0 0 12 19" fill="none" xmlns="http://www.w3.org/2000/svg">
<path d="M4.95192 5.81811H0.425123C0.546532 4.22246 1.11021 2.94767 2.11617 1.99375C3.13947 1.03983 4.44895 0.562866 6.0446 0.562866C7.51884 0.562866 8.78496 1.03983 9.84295 1.99375C10.9183 2.94767 11.4559 4.15309 11.4559 5.60999C11.4559 7.24033 10.7535 8.45441 9.34864 9.25224C10.8923 10.1541 11.6641 11.4983 11.6641 13.2847C11.6641 14.8977 11.0917 16.1812 9.94701 17.1351C8.81965 18.0717 7.43212 18.54 5.78444 18.54C4.17144 18.54 2.8186 18.0804 1.72593 17.1611C0.633252 16.2246 0.0869141 14.9671 0.0869141 13.3888V13.1286H4.66575C4.66575 14.1693 5.04731 14.6896 5.81045 14.6896C6.22671 14.6896 6.5389 14.5335 6.74703 14.2213C6.97251 13.8918 7.08524 13.5102 7.08524 13.0766C7.08524 12.5042 6.9118 12.062 6.56492 11.7498C6.23538 11.4202 5.78444 11.2555 5.21208 11.2555C5.03864 11.2555 4.76114 11.2728 4.37957 11.3075V7.61323C4.50098 7.63057 4.69176 7.63924 4.95192 7.63924C5.611 7.63924 6.09663 7.50916 6.40882 7.249C6.72102 6.9715 6.87711 6.51188 6.87711 5.87015C6.87711 4.91622 6.5389 4.43926 5.86249 4.43926C5.29013 4.43926 4.98661 4.89888 4.95192 5.81811Z" fill="#FFCF00"/>
</svg>
